<svg width="48" height="49" viewBox="0 0 48 49" fill="none" xmlns="http://www.w3.org/2000/svg">
<g clip-path="url(#clip0_1972_97655)">
<path d="M42 10.375C39.78 9.675 37.34 9.375 35 9.375C31.1 9.375 26.9 10.175 24 12.375C21.1 10.175 16.9 9.375 13 9.375C9.1 9.375 4.9 10.175 2 12.375V41.675C2 42.175 2.5 42.675 3 42.675C3.2 42.675 3.3 42.575 3.5 42.575C6.2 41.275 10.1 40.375 13 40.375C16.9 40.375 21.1 41.175 24 43.375C26.7 41.675 31.6 40.375 35 40.375C38.3 40.375 41.7 40.975 44.5 42.475C44.7 42.575 44.8 42.575 45 42.575C45.5 42.575 46 42.075 46 41.575V12.375C44.8 11.475 43.5 10.875 42 10.375ZM42 37.375C39.8 36.675 37.4 36.375 35 36.375C31.6 36.375 26.7 37.675 24 39.375V16.375C26.7 14.675 31.6 13.375 35 13.375C37.4 13.375 39.8 13.675 42 14.375V37.375Z" fill="#F5830E"/>
<path d="M35 21.375C36.76 21.375 38.46 21.555 40 21.895V18.855C38.42 18.555 36.72 18.375 35 18.375C31.6 18.375 28.52 18.955 26 20.035V23.355C28.26 22.075 31.4 21.375 35 21.375Z" fill="#D6601E"/>
<path d="M26 25.3549V28.6749C28.26 27.3949 31.4 26.6949 35 26.6949C36.76 26.6949 38.46 26.8749 40 27.2149V24.1749C38.42 23.8749 36.72 23.6949 35 23.6949C31.6 23.6949 28.52 24.2949 26 25.3549Z" fill="#D6601E"/>
<path d="M35 29.035C31.6 29.035 28.52 29.615 26 30.695V34.015C28.26 32.735 31.4 32.035 35 32.035C36.76 32.035 38.46 32.215 40 32.555V29.515C38.42 29.195 36.72 29.035 35 29.035Z" fill="#D6601E"/>
</g>
<defs>
<clipPath id="clip0_1972_97655">
<rect width="48" height="48" fill="white" transform="translate(0 0.375)"/>
</clipPath>
</defs>
</svg>
