<svg width="48" height="49" viewBox="0 0 48 49" fill="none" xmlns="http://www.w3.org/2000/svg">
<path d="M24 12.375C27.1826 12.375 30.2348 13.6393 32.4853 15.8897C34.7357 18.1402 36 21.1924 36 24.375C36 28.815 33.58 32.695 30 34.775V38.375C30 38.9054 29.7893 39.4141 29.4142 39.7892C29.0391 40.1643 28.5304 40.375 28 40.375H20C19.4696 40.375 18.9609 40.1643 18.5858 39.7892C18.2107 39.4141 18 38.9054 18 38.375V34.775C14.42 32.695 12 28.815 12 24.375C12 21.1924 13.2643 18.1402 15.5147 15.8897C17.7652 13.6393 20.8174 12.375 24 12.375ZM28 42.375V44.375C28 44.9054 27.7893 45.4141 27.4142 45.7892C27.0391 46.1643 26.5304 46.375 26 46.375H22C21.4696 46.375 20.9609 46.1643 20.5858 45.7892C20.2107 45.4141 20 44.9054 20 44.375V42.375H28ZM40 22.375H46V26.375H40V22.375ZM2 22.375H8V26.375H2V22.375ZM26 2.375V8.375H22V2.375H26ZM9.84 7.375L14.1 11.655L11.26 14.475L7 10.235L9.84 7.375ZM33.9 11.635L38.14 7.375L41 10.235L36.74 14.475L33.9 11.635Z" fill="#F5830E"/>
</svg>
