<svg width="39" height="41" viewBox="0 0 39 41" fill="none" xmlns="http://www.w3.org/2000/svg">
<path d="M19.4587 27.75C17.6021 27.75 15.8217 27.0125 14.5089 25.6998C13.1962 24.387 12.4587 22.6065 12.4587 20.75C12.4587 18.8935 13.1962 17.113 14.5089 15.8003C15.8217 14.4875 17.6021 13.75 19.4587 13.75C21.3152 13.75 23.0957 14.4875 24.4084 15.8003C25.7212 17.113 26.4587 18.8935 26.4587 20.75C26.4587 22.6065 25.7212 24.387 24.4084 25.6998C23.0957 27.0125 21.3152 27.75 19.4587 27.75ZM34.3187 22.69C34.3987 22.05 34.4587 21.41 34.4587 20.75C34.4587 20.09 34.3987 19.43 34.3187 18.75L38.5387 15.49C38.9187 15.19 39.0187 14.65 38.7787 14.21L34.7787 7.29C34.5387 6.85 33.9987 6.67 33.5587 6.85L28.5787 8.85C27.5387 8.07 26.4587 7.39 25.1987 6.89L24.4587 1.59C24.418 1.35444 24.2953 1.14086 24.1123 0.987107C23.9293 0.833356 23.6977 0.74936 23.4587 0.750004H15.4587C14.9587 0.750004 14.5387 1.11 14.4587 1.59L13.7187 6.89C12.4587 7.39 11.3787 8.07 10.3387 8.85L5.35866 6.85C4.91866 6.67 4.37866 6.85 4.13866 7.29L0.138663 14.21C-0.121337 14.65 -0.0013366 15.19 0.378663 15.49L4.59866 18.75C4.51866 19.43 4.45866 20.09 4.45866 20.75C4.45866 21.41 4.51866 22.05 4.59866 22.69L0.378663 26.01C-0.0013366 26.31 -0.121337 26.85 0.138663 27.29L4.13866 34.21C4.37866 34.65 4.91866 34.81 5.35866 34.65L10.3387 32.63C11.3787 33.43 12.4587 34.11 13.7187 34.61L14.4587 39.91C14.5387 40.39 14.9587 40.75 15.4587 40.75H23.4587C23.9587 40.75 24.3787 40.39 24.4587 39.91L25.1987 34.61C26.4587 34.09 27.5387 33.43 28.5787 32.63L33.5587 34.65C33.9987 34.81 34.5387 34.65 34.7787 34.21L38.7787 27.29C39.0187 26.85 38.9187 26.31 38.5387 26.01L34.3187 22.69Z" fill="#EB5524"/>
</svg>
