<svg width="48" height="49" viewBox="0 0 48 49" fill="none" xmlns="http://www.w3.org/2000/svg">
<path d="M38 42.375H10C9.46957 42.375 8.96086 42.1642 8.58579 41.7892C8.21071 41.4141 8 40.9054 8 40.375V22.375H2L22.654 3.59896C23.0222 3.26392 23.5022 3.07825 24 3.07825C24.4978 3.07825 24.9778 3.26392 25.346 3.59896L46 22.375H40V40.375C40 40.9054 39.7893 41.4141 39.4142 41.7892C39.0391 42.1642 38.5304 42.375 38 42.375ZM12 38.375H36V18.689L24 7.78096L12 18.689V38.375ZM17.182 27.993C16.9286 26.9265 16.9286 25.8154 17.182 24.749L15.2 23.605L17.2 20.141L19.182 21.287C19.9777 20.5329 20.9396 19.9766 21.99 19.663V17.375H25.99V19.663C27.054 19.981 28.01 20.543 28.798 21.287L30.78 20.141L32.78 23.603L30.798 24.749C31.0514 25.8154 31.0514 26.9265 30.798 27.993L32.78 29.137L30.78 32.599L28.798 31.455C28.0021 32.2083 27.0402 32.7639 25.99 33.077V35.367H21.99V33.075C20.9398 32.7619 19.9779 32.2063 19.182 31.453L17.2 32.597L15.2 29.137L17.182 27.991V27.993ZM23.99 29.369C24.3929 29.3837 24.7947 29.317 25.1712 29.173C25.5478 29.029 25.8915 28.8105 26.1818 28.5307C26.472 28.2508 26.7029 27.9153 26.8606 27.5443C27.0183 27.1732 27.0995 26.7741 27.0995 26.371C27.0995 25.9678 27.0183 25.5687 26.8606 25.1977C26.7029 24.8266 26.472 24.4911 26.1818 24.2113C25.8915 23.9314 25.5478 23.713 25.1712 23.5689C24.7947 23.4249 24.3929 23.3582 23.99 23.373C23.2138 23.4013 22.4789 23.7296 21.9398 24.2887C21.4007 24.8479 21.0995 25.5943 21.0995 26.371C21.0995 27.1476 21.4007 27.8941 21.9398 28.4532C22.4789 29.0123 23.2138 29.3406 23.99 29.369Z" fill="#F5830E"/>
</svg>
