<svg width="48" height="49" viewBox="0 0 48 49" fill="none" xmlns="http://www.w3.org/2000/svg">
<g clip-path="url(#clip0_1972_97667)">
<path d="M41 22.375H38V14.375C38 12.175 36.2 10.375 34 10.375H26V7.375C26 4.615 23.76 2.375 21 2.375C18.24 2.375 16 4.615 16 7.375V10.375H8C5.8 10.375 4.02 12.175 4.02 14.375V21.975H7C9.98 21.975 12.4 24.395 12.4 27.375C12.4 30.355 9.98 32.775 7 32.775H4V40.375C4 42.575 5.8 44.375 8 44.375H15.6V41.375C15.6 38.395 18.02 35.975 21 35.975C23.98 35.975 26.4 38.395 26.4 41.375V44.375H34C36.2 44.375 38 42.575 38 40.375V32.375H41C43.76 32.375 46 30.135 46 27.375C46 24.615 43.76 22.375 41 22.375Z" fill="#F5830E"/>
</g>
<defs>
<clipPath id="clip0_1972_97667">
<rect width="48" height="48" fill="white" transform="translate(0 0.375)"/>
</clipPath>
</defs>
</svg>
