<svg width="632" height="5" viewBox="0 0 632 5" fill="none" xmlns="http://www.w3.org/2000/svg">
<path fill-rule="evenodd" clip-rule="evenodd" d="M0.916649 2.02942C0.916649 3.13399 1.81208 4.02942 2.91665 4.02942L14.9583 4.02942C16.0629 4.02942 16.9583 3.13399 16.9583 2.02942C16.9583 0.924851 16.0629 0.0294203 14.9583 0.0294202L2.91665 0.0294191C1.81208 0.029419 0.916649 0.92485 0.916649 2.02942ZM37.0417 2.02942C37.0417 3.13399 37.9371 4.02942 39.0417 4.02942L51.0833 4.02942C52.1879 4.02942 53.0833 3.13399 53.0833 2.02942C53.0833 0.924854 52.1879 0.0294234 51.0833 0.0294233L39.0417 0.0294223C37.9371 0.0294222 37.0417 0.924853 37.0417 2.02942ZM73.1666 2.02943C73.1666 3.13399 74.0621 4.02943 75.1666 4.02943L87.2083 4.02943C88.3129 4.02943 89.2083 3.134 89.2083 2.02943C89.2083 0.924857 88.3129 0.0294266 87.2083 0.0294265L75.1666 0.0294254C74.0621 0.0294253 73.1666 0.924856 73.1666 2.02943ZM109.292 2.02943C109.292 3.134 110.187 4.02943 111.292 4.02943L123.333 4.02943C124.438 4.02943 125.333 3.134 125.333 2.02943C125.333 0.92486 124.438 0.0294297 123.333 0.0294296L111.292 0.0294286C110.187 0.0294285 109.292 0.924859 109.292 2.02943ZM145.417 2.02943C145.417 3.134 146.312 4.02943 147.417 4.02943L159.458 4.02943C160.563 4.02943 161.458 3.134 161.458 2.02943C161.458 0.924864 160.563 0.0294329 159.458 0.0294328L147.417 0.0294318C146.312 0.0294317 145.417 0.924862 145.417 2.02943ZM181.542 2.02943C181.542 3.134 182.437 4.02943 183.542 4.02943L195.583 4.02944C196.688 4.02944 197.583 3.13401 197.583 2.02944C197.583 0.924867 196.688 0.0294361 195.583 0.029436L183.542 0.0294349C182.437 0.0294348 181.542 0.924865 181.542 2.02943ZM217.667 2.02944C217.667 3.13401 218.562 4.02944 219.667 4.02944L231.708 4.02944C232.813 4.02944 233.708 3.13401 233.708 2.02944C233.708 0.92487 232.813 0.0294392 231.708 0.0294391L219.667 0.0294381C218.562 0.029438 217.667 0.924868 217.667 2.02944ZM253.792 2.02944C253.792 3.13401 254.687 4.02944 255.792 4.02944L267.833 4.02944C268.938 4.02944 269.833 3.13401 269.833 2.02944C269.833 0.924873 268.938 0.0294424 267.833 0.0294423L255.792 0.0294412C254.687 0.0294411 253.792 0.924872 253.792 2.02944ZM289.917 2.02944C289.917 3.13401 290.812 4.02944 291.917 4.02944L303.958 4.02945C305.063 4.02945 305.958 3.13402 305.958 2.02945C305.958 0.924876 305.063 0.0294455 303.958 0.0294454L291.917 0.0294444C290.812 0.0294443 289.917 0.924875 289.917 2.02944ZM326.042 2.02945C326.042 3.13402 326.937 4.02945 328.042 4.02945L340.083 4.02945C341.188 4.02945 342.083 3.13402 342.083 2.02945C342.083 0.924879 341.188 0.0294487 340.083 0.0294486L328.042 0.0294475C326.937 0.0294474 326.042 0.924878 326.042 2.02945ZM362.167 2.02945C362.167 3.13402 363.062 4.02945 364.167 4.02945L376.208 4.02945C377.313 4.02945 378.208 3.13402 378.208 2.02945C378.208 0.924882 377.313 0.0294519 376.208 0.0294518L364.167 0.0294507C363.062 0.0294506 362.167 0.924881 362.167 2.02945ZM398.292 2.02945C398.292 3.13402 399.187 4.02945 400.292 4.02945L412.333 4.02945C413.438 4.02946 414.333 3.13402 414.333 2.02946C414.333 0.924886 413.438 0.029455 412.333 0.0294549L400.292 0.0294539C399.187 0.0294538 398.292 0.924884 398.292 2.02945ZM434.417 2.02946C434.417 3.13403 435.312 4.02946 436.417 4.02946L448.458 4.02946C449.563 4.02946 450.458 3.13403 450.458 2.02946C450.458 0.924889 449.563 0.0294582 448.458 0.0294581L436.417 0.029457C435.312 0.0294569 434.417 0.924887 434.417 2.02946ZM470.542 2.02946C470.542 3.13403 471.437 4.02946 472.542 4.02946L484.583 4.02946C485.688 4.02946 486.583 3.13403 486.583 2.02946C486.583 0.924892 485.688 0.0294613 484.583 0.0294612L472.542 0.0294602C471.437 0.0294601 470.542 0.924891 470.542 2.02946ZM506.667 2.02946C506.667 3.13403 507.562 4.02946 508.667 4.02946L520.708 4.02946C521.813 4.02946 522.708 3.13403 522.708 2.02946C522.708 0.924895 521.813 0.0294645 520.708 0.0294644L508.667 0.0294633C507.562 0.0294632 506.667 0.924894 506.667 2.02946ZM542.792 2.02947C542.792 3.13404 543.687 4.02947 544.792 4.02947L556.833 4.02947C557.938 4.02947 558.833 3.13404 558.833 2.02947C558.833 0.924898 557.938 0.0294676 556.833 0.0294675L544.792 0.0294665C543.687 0.0294664 542.792 0.924897 542.792 2.02947ZM578.917 2.02947C578.917 3.13404 579.812 4.02947 580.917 4.02947L592.958 4.02947C594.063 4.02947 594.958 3.13404 594.958 2.02947C594.958 0.924901 594.063 0.0294708 592.958 0.0294707L580.917 0.0294697C579.812 0.0294696 578.917 0.9249 578.917 2.02947ZM615.042 2.02947C615.042 3.13404 615.937 4.02947 617.042 4.02947L629.083 4.02947C630.188 4.02947 631.083 3.13404 631.083 2.02947C631.083 0.924905 630.188 0.029474 629.083 0.0294739L617.042 0.0294728C615.937 0.0294727 615.042 0.924903 615.042 2.02947Z" fill="#FDA31E"/>
</svg>
