<svg width="1920" height="262" viewBox="0 0 1920 262" fill="none" xmlns="http://www.w3.org/2000/svg">
<path d="M2029.82 92.3794V132.692H2016.86V152.854H1991.14V144.844H1947.47V105.343H1937.39V96.4165H1905.24V105.343H1895.16V169.549H1885.18V113.688H1859.85V129.62H1851.27V96.4107H1845.41V69.4386H1824.78L1804.34 89.8829V96.4107H1794.36V162.452H1769.06V137.161H1759.75V129.571H1724.33V137.161H1693.05V160.375H1679.42V151.895V143.441V117.342V98.625V95.2647H1652.35V98.625H1643.43L1627.59 114.462V143.441H1599.18V117.67H1592.76V113.4H1576.78V117.67H1555.61V169.549H1549.16V103.828H1543.95V97.9685H1538.77V95.4806H1525.58V97.9685H1520.4V103.828H1515.19V154.19H1508.97V149.537V143.934V137.633H1480.18V143.934H1475.79V141.377H1465.71V143.934H1459.45V169.549V178.81H1449.28V128.275H1411.85L1398.99 115.415H1373.46V127.892H1360.41V93.9142H1327.78V97.9455H1311.46V155.48H1286.29V171.384H1273.74L1252.34 149.981V99.6732H1246.39V96.3618H1222.4V99.6732H1216.45V163.226H1205.79V124.054H1176.52V118.787H1133.53V124.054H1123.45V159.923H1119.42V146.419H1095.23V159.923H1081.27V176.751H1067.02V154.484H1036.5H1029.69V123.63H1008.96V117.339H980.549V123.63H975.557V179.248H960.481V33.782H953.58V25.9153H945.518L937.652 33.782H916.445V117.218H880.17V105.556H859.143V101.358H842.165V105.556V162.135H825.457V129.001H798.548V118.514H758.819V28.6767H749.83V22.9869H721.424V28.6767H712.611V128.445H687.562V18.3106H678.061V11.8318H645.673V18.3106H636.172V115.922H622.784V162.135H608.964V79.2087H605.633V75.4423H594.116V79.2087H572.041V109.659L558.869 122.833H514.939V118.635H504.024V122.833V127.129V140.539H488.595V175.092H471.204V89.4078H465.368V85.7854H453.037V89.4078H445.551V87.3691H434.322V89.4078H427.156V151.893H414.888V111.868L384.945 81.9212V42.4723L367.094 24.6195V3.59935H359.752V0H347.084V100.494L327.937 119.642H316.133V149.877H301.737V106.109H266.323V135.479H258.261V117.051H224.287V83.3609H209.315V91.1355H184.842V173.489H161.521V162.835L146.837 148.149V110.14H137.336V49.671H117.902L105.234 38.0091H82.92V49.671V58.3094H77.4496V164.234H64.2054V115.775H34.0692L9.30835 140.539V154.484H0V262H2073V92.3794H2029.82Z" fill="url(#paint0_linear_2020_4943)"/>
<defs>
<linearGradient id="paint0_linear_2020_4943" x1="1036.5" y1="-43.9408" x2="1036.5" y2="276.004" gradientUnits="userSpaceOnUse">
<stop stop-color="#EB5524"/>
<stop offset="1" stop-color="#1A0919"/>
</linearGradient>
</defs>
</svg>
