<svg width="1920" height="381" viewBox="0 0 1920 381" fill="none" xmlns="http://www.w3.org/2000/svg">
<g opacity="0.5">
<path d="M2039.93 192.452V161.237V156.968H2026.83V152.793H1990.78V156.968H1978.48H1976.32H1976.31V181.233H1965.37V158.223V57.3461V55.1208H1930.46L1923.01 46.8845H1909.02V55.1208H1903.48H1901.76V57.3461V183.433H1888.91V206.751H1875.82V170.484V168.754V165.676H1847.43V171.212H1838.85V167.115H1837.07V141.281H1837.62H1838.85V140.199V131.827H1837.62H1837.07V105.992H1837.89H1838.85V105.27V96.5354H1837.89H1837.07V90.9707V87.5852H1836.62H1834.89H1774.36V90.9707V96.5354H1772.58V105.27V105.992H1774.36V131.827H1772.58V140.199V141.281H1774.36V150.11H1769.09V146.946H1726.93V150.11H1725.42H1715.98V153.407V188.321H1700.97V126.691H1682.38V102.535V99.9843H1675.38V82.6221V80.8948H1666.69V75.9289V74.2016H1632.72V75.9289V80.8948H1624.04V82.6221V99.9843H1617.03V102.535V170.089H1585.25V144.517V142.861H1579.97V139.407H1585.25V133.905V132.253H1575V128.133V126.982H1532.16V128.133V132.253H1518H1505.65H1504.61V133.905V139.407H1505.65H1509.89V142.861H1505.65H1504.61V144.517V200.942H1492.19V199.934H1484.46V127.132V123.821L1467.05 130.506L1460.87 132.878V66.0056V62.6949L1451.54 66.2762H1449.82V24.1072V20.7966L1445.2 22.5699H1443.37L1443.08 11.285H1442.52L1442.19 22.5699H1440.03L1439.46 0H1438.33L1437.67 22.5699H1431.2V27.9418L1442.48 23.615L1427.88 29.22V32.5307V66.2762H1422.57V77.3971L1416.83 79.5994V82.91V111.379V112.832V168.526V169.98V174.721H1407.31V157.345V154.99V152.019H1398.41V154.99H1376.58V150.102H1353.01V182.842H1335.43V179.29H1335.97H1337.07V178.438V173.112H1335.97H1335.43V166.396H1335.97H1337.07V165.544V160.218H1335.97H1335.43V154.636V152.41H1332.32V148.547H1317.13V152.41H1313.75V150.49H1306.41V152.41H1303.73H1302V154.636V160.218H1300.36V165.544V166.396H1302V173.112H1300.36V178.438V179.29H1302V186.009H1300.36V191.335V192.184H1302V201.253H1291.61V133.096V130.871H1285.03V129.475H1273.88V88.1869V85.9615H1268.26V83.7362H1242.35V85.9615H1238.47H1236.74V88.1869V188.321H1199.6V173.642H1191.35V171.549H1185.11V170.464H1171.58V25.2559H1168.51H1165.06V23.1831H1150.52V25.2559H1137.06V21.1104H1115.18V25.2559H1110.65V29.6518V188.419H1102.3V125.468H1080.42V121.647H1052.88V125.468V203.769H1036.38H1026.87V145.32H991.753V203.959H937.249V152.333H909.612V99.1696H903.23V94.8024H881.782V99.1696H866.43V126.806H861.199V146.5H833.274V140.576H796.138V146.5H783.903V194.363H741.489V113.564H700.417V139.473H658.193V92.3093H628.59L615.011 105.886H587.374V183.807H542.657V159.049H531.142V139.473H527.88V135.538H512.623V139.473H506.96V136.882H498.899V139.473H493.335V204.727H461.282V113.757H453.558V108.431H408.743V113.757H401.02V165.768H380.292V136.977H334.231V143.311H309.856V173.636H286.25V120.761H258.325L237.503 141.583V174.98H197.968V81.2979H164.573V88.5928H147.491V144.079H123.501V131.605H88.9555V153.484H50.1865V187.521H26.8248V149.35H0V398H2072.75V192.452H2039.93Z" fill="url(#paint0_linear_2020_4941)"/>
</g>
<defs>
<linearGradient id="paint0_linear_2020_4941" x1="1036.38" y1="-51.98" x2="1036.38" y2="261.883" gradientUnits="userSpaceOnUse">
<stop stop-color="#D6601E"/>
<stop offset="1" stop-color="#1A0A19"/>
</linearGradient>
</defs>
</svg>
