<svg width="1920" height="101" viewBox="0 0 1920 101" fill="none" xmlns="http://www.w3.org/2000/svg">
<path d="M2044.44 3.69083V56.9409H2024.26V58.9292V66.4955H2007.21V34.1755H1978.85V66.4955H1967.1V53.7205V51.4927H1962.63V49.3457H1948.14V51.4927H1921.48V53.7205V77.7498H1916.8V68.8762V67.1159V65.0786H1913.21V61.5725V58.9638H1881.69V38.0539V36.4495H1855.24L1853.32 38.0539H1839.22V49.8565L1836.84 51.8505V56.0752V64.2591H1815.36V66.8562V69.6987V70.5528V71.6638H1799.19V54.566H1791.42V51.7495H1783.79V54.566H1777.69V51.7495H1758.36V54.566H1753.43V41.8977L1743.98 32.7875L1743.68 32.4989L1738.35 27.3595H1706.86V23.3743H1671.23V27.3595H1664.73V50.5577H1653.58V46.6562H1626.74V50.5577H1614.9V40.1201H1614.73H1594.77H1592.24V42.3594V50.5577V64.2822H1587.31V41.6062V40.1201H1582.01V38.1895H1560.79V40.1201H1555.49V41.6062V50.1191H1537.94V54.7103H1514.82V56.9755V77.4612H1507.82V65.0036H1491.79V77.4612H1477.66V71.8947H1454.38V47.343H1449.99H1442.17V44.2871H1438.67H1427.3V47.343H1421.64V44.2871H1418.13H1406.76V47.343H1399.83V48.0991V59.2408H1395.15V77.0428H1388.62V37.7134H1384.59H1378.96H1378.12H1372.09H1371.25H1365.22H1364.38H1362.13L1352.16 48.1481V74.8497H1332.29V48.8205V48.1597H1327.24V46.1022V45.753H1320.82L1317.95 24.6267L1317.83 23.7754H1312.01H1311.03L1310.92 24.6267H1310.94L1308.62 45.753H1302.2V46.1022V48.1597H1298.27H1297.15V48.8205V72.7171H1288.71V60.1873V59.463H1264.24V60.1873V72.7171H1254.45V73.4414V78.1336H1244.54V72.1227V67.2487H1231.69V72.1227H1230.56V22.9934H1225.72H1221.54V20.6329H1210.4V22.9934H1178.16V26.8891V71.6754H1169.81V56.6581H1159.3V51.7986H1127.91V56.6581H1110.78V76.1684H1093.16H1081.26V71.4243H1075.75V3.69083H1067.31V0H1045.23V3.69083H1036.5H997.032V43.3781H987.761V45.3692V69.4187H970.711V20.6127H942.351V52.9327H930.604V40.1576V37.9298H926.133V35.7829H911.639V37.9298H884.984V40.1576V64.1869H880.297V55.3134V53.556V51.5158H876.706V48.0096V45.4009H845.188V24.4911V22.8866H818.74L816.822 24.4911H802.723V36.2936L800.342 38.2877V42.5123V69.3726H778.861V76.7773H762.691V41.0031H754.917V38.1867H747.288V41.0031H741.193V38.1867H721.856V59.4803H716.927V28.3348L707.477 19.2246L707.178 18.9389L701.846 13.7966H670.365V9.81143H634.732V13.7966H628.234V59.4803H617.077V33.0934H590.244V36.9949H578.402V26.5572H578.232H558.27H555.74V28.7965V36.9949V50.7193H550.81V28.0434V26.5572H545.507V24.6267H524.293V26.5572H518.987V28.0434V36.5562H501.439V41.1474H478.325V43.4127V77.9143H471.32V65.4567H455.291V77.9143H441.16V58.3318H417.876V33.7802H413.494H405.675V30.7242H402.171H390.798V33.7802H385.137V30.7242H381.634H370.261V33.7802H363.328V34.5362V45.678H355.684V46.4138V63.4799H352.122V24.1505H348.091H342.462H341.625H335.59H334.749H328.717H327.877H325.634L315.663 34.5882V61.2897H295.785V35.2577V34.5968H290.744V32.5393V32.1901H284.318L281.447 11.0638L281.332 10.2125H275.513H274.529L274.425 11.0638H274.434L272.122 32.1901H265.695V32.5393V34.5968H261.765H260.654V35.2577V59.1543H252.215V46.6245V45.9002H227.742V46.6245V70.1229H217.953V70.8472V75.5393H208.04V58.5598V53.6858H195.193V58.5598H194.056V9.43051H189.219H185.035V7.07H173.902V9.43051H141.655V13.3262V58.1154H133.305V43.0953H122.796V38.2357H91.4135V43.0953H74.2825V83.1086H44.7595V57.8615H39.2517V3.69083H30.8071V0H8.73251V3.69083H0V101H1036.5H2073V3.69083H2044.44Z" fill="url(#paint0_linear_2020_4946)"/>
<defs>
<linearGradient id="paint0_linear_2020_4946" x1="1036.5" y1="33.7629" x2="1036.5" y2="159.6" gradientUnits="userSpaceOnUse">
<stop stop-color="#F06A23"/>
<stop offset="0.0677083" stop-color="#E26422"/>
<stop offset="1" stop-color="#1A0A19"/>
</linearGradient>
</defs>
</svg>
